<?xml version="1.0" encoding="UTF-8"?>
<svg xmlns="http://www.w3.org/2000/svg" xmlns:xlink="http://www.w3.org/1999/xlink" width="13px" height="13px" viewBox="0 0 13 13" version="1.1">
<defs>
<clipPath id="clip1">
  <path d="M 11.640625 4 L 12.464844 4 L 12.464844 9.554688 L 11.640625 9.554688 Z M 11.640625 4 "/>
</clipPath>
<clipPath id="clip2">
  <path d="M 1.179688 0.199219 L 6.261719 0.199219 L 6.261719 3.277344 L 1.179688 3.277344 Z M 1.179688 0.199219 "/>
</clipPath>
<clipPath id="clip3">
  <path d="M 6.558594 0.199219 L 11.640625 0.199219 L 11.640625 3.277344 L 6.558594 3.277344 Z M 6.558594 0.199219 "/>
</clipPath>
<clipPath id="clip4">
  <path d="M 7 9.855469 L 11.9375 9.855469 L 11.9375 12.90625 L 7 12.90625 Z M 7 9.855469 "/>
</clipPath>
<clipPath id="clip5">
  <path d="M 1.179688 9.855469 L 6.261719 9.855469 L 6.261719 12.90625 L 1.179688 12.90625 Z M 1.179688 9.855469 "/>
</clipPath>
</defs>
<g id="surface1">
<g clip-path="url(#clip1)" clip-rule="nonzero">
<path style=" stroke:none;fill-rule:nonzero;fill:rgb(89.019608%,0%,4.705882%);fill-opacity:1;" d="M 12.101562 4.035156 C 11.90625 4.035156 11.742188 4.238281 11.742188 4.4375 L 11.742188 9.003906 C 11.742188 9.203125 11.90625 9.410156 12.101562 9.410156 C 12.300781 9.410156 12.464844 9.203125 12.464844 9.003906 L 12.464844 4.4375 C 12.464844 4.238281 12.300781 4.035156 12.101562 4.035156 "/>
</g>
<path style=" stroke:none;fill-rule:nonzero;fill:rgb(89.019608%,0%,4.705882%);fill-opacity:1;" d="M 0.933594 4.035156 C 0.734375 4.035156 0.574219 4.238281 0.574219 4.4375 L 0.574219 9.007812 C 0.574219 9.203125 0.738281 9.410156 0.9375 9.410156 C 1.132812 9.410156 1.296875 9.203125 1.296875 9.003906 L 1.292969 4.4375 C 1.292969 4.238281 1.132812 4.035156 0.933594 4.035156 "/>
<g clip-path="url(#clip2)" clip-rule="nonzero">
<path style=" stroke:none;fill-rule:nonzero;fill:rgb(89.019608%,0%,4.705882%);fill-opacity:1;" d="M 2.019531 3.179688 L 6.003906 0.875 C 6.175781 0.777344 6.273438 0.535156 6.171875 0.363281 C 6.074219 0.191406 5.816406 0.152344 5.644531 0.253906 L 1.660156 2.554688 C 1.488281 2.65625 1.394531 2.898438 1.492188 3.070312 C 1.589844 3.242188 1.847656 3.277344 2.019531 3.179688 "/>
</g>
<g clip-path="url(#clip3)" clip-rule="nonzero">
<path style=" stroke:none;fill-rule:nonzero;fill:rgb(89.019608%,0%,4.705882%);fill-opacity:1;" d="M 7.027344 0.878906 L 11.015625 3.175781 C 11.1875 3.273438 11.445312 3.234375 11.542969 3.0625 C 11.640625 2.890625 11.546875 2.648438 11.375 2.550781 L 7.386719 0.253906 C 7.214844 0.152344 6.957031 0.191406 6.859375 0.363281 C 6.757812 0.535156 6.855469 0.777344 7.027344 0.878906 "/>
</g>
<path style=" stroke:none;fill-rule:nonzero;fill:rgb(89.019608%,0%,4.705882%);fill-opacity:1;" d="M 6.949219 9.089844 L 6.878906 9.089844 L 6.878906 7.6875 C 6.878906 7.488281 6.714844 7.285156 6.515625 7.285156 C 6.320312 7.285156 6.15625 7.488281 6.15625 7.6875 L 6.15625 9.089844 L 2.589844 9.089844 C 2.546875 9.085938 2.519531 9.070312 2.511719 9.046875 C 2.503906 9.03125 2.507812 9.003906 2.550781 8.976562 L 6.050781 7.035156 C 6.191406 6.96875 6.34375 6.921875 6.519531 6.917969 C 6.714844 6.917969 6.894531 6.988281 7.035156 7.058594 L 10.492188 8.976562 C 10.53125 9.003906 10.535156 9.03125 10.53125 9.046875 C 10.523438 9.070312 10.496094 9.085938 10.449219 9.089844 Z M 2.359375 8.773438 C 2.34375 8.753906 2.347656 8.726562 2.363281 8.691406 L 4.105469 5.78125 C 4.125 5.746094 4.148438 5.710938 4.171875 5.671875 L 5.410156 6.390625 C 5.582031 6.488281 5.839844 6.449219 5.941406 6.28125 C 6.039062 6.109375 5.945312 5.863281 5.773438 5.765625 L 4.539062 5.054688 C 4.542969 5.050781 4.542969 5.046875 4.542969 5.042969 L 6.289062 2.121094 C 6.316406 2.082031 6.339844 2.066406 6.363281 2.070312 C 6.382812 2.070312 6.402344 2.089844 6.40625 2.140625 L 6.40625 5.824219 C 6.40625 5.988281 6.394531 6.246094 6.273438 6.46875 C 6.144531 6.691406 5.957031 6.820312 5.773438 6.925781 L 2.441406 8.777344 C 2.394531 8.796875 2.371094 8.789062 2.359375 8.773438 M 6.636719 2.140625 C 6.640625 2.089844 6.660156 2.070312 6.679688 2.070312 C 6.703125 2.066406 6.726562 2.082031 6.75 2.117188 L 8.496094 5.042969 C 8.5 5.042969 8.503906 5.050781 8.503906 5.054688 L 7.269531 5.769531 C 7.097656 5.867188 7 6.109375 7.097656 6.28125 C 7.199219 6.453125 7.457031 6.492188 7.628906 6.390625 L 8.875 5.671875 C 8.898438 5.710938 8.917969 5.746094 8.9375 5.78125 L 10.679688 8.691406 C 10.695312 8.726562 10.699219 8.753906 10.683594 8.773438 C 10.671875 8.789062 10.648438 8.796875 10.601562 8.777344 L 7.269531 6.925781 C 7.085938 6.820312 6.898438 6.691406 6.769531 6.46875 C 6.644531 6.246094 6.636719 5.988281 6.636719 5.824219 Z M 10.921875 9.09375 C 11 8.949219 10.988281 8.769531 10.890625 8.601562 L 9.132812 5.664062 L 9.070312 5.558594 L 11.398438 4.214844 C 11.570312 4.117188 11.667969 3.871094 11.566406 3.703125 C 11.46875 3.53125 11.210938 3.492188 11.039062 3.589844 L 8.703125 4.941406 L 8.691406 4.925781 L 6.9375 1.984375 C 6.835938 1.816406 6.6875 1.722656 6.519531 1.722656 C 6.355469 1.722656 6.203125 1.816406 6.105469 1.984375 L 4.351562 4.925781 L 4.339844 4.9375 L 2.003906 3.585938 C 1.832031 3.488281 1.570312 3.527344 1.472656 3.699219 C 1.375 3.871094 1.46875 4.113281 1.640625 4.210938 L 3.972656 5.558594 L 3.910156 5.664062 L 2.152344 8.601562 C 2.050781 8.769531 2.039062 8.949219 2.121094 9.09375 C 2.203125 9.234375 2.363281 9.316406 2.558594 9.316406 L 6.15625 9.316406 L 6.15625 12.039062 C 6.15625 12.238281 6.320312 12.445312 6.515625 12.441406 C 6.714844 12.445312 6.878906 12.238281 6.878906 12.039062 L 6.878906 9.316406 L 10.484375 9.316406 C 10.679688 9.316406 10.839844 9.234375 10.921875 9.09375 "/>
<g clip-path="url(#clip4)" clip-rule="nonzero">
<path style=" stroke:none;fill-rule:nonzero;fill:rgb(89.019608%,0%,4.705882%);fill-opacity:1;" d="M 11.121094 9.988281 L 7.246094 12.226562 C 7.074219 12.328125 6.976562 12.570312 7.078125 12.742188 C 7.175781 12.914062 7.433594 12.949219 7.605469 12.851562 L 11.484375 10.613281 C 11.65625 10.515625 11.753906 10.273438 11.652344 10.101562 C 11.554688 9.925781 11.292969 9.890625 11.121094 9.988281 "/>
</g>
<g clip-path="url(#clip5)" clip-rule="nonzero">
<path style=" stroke:none;fill-rule:nonzero;fill:rgb(89.019608%,0%,4.705882%);fill-opacity:1;" d="M 5.792969 12.226562 L 1.914062 9.992188 C 1.742188 9.890625 1.484375 9.929688 1.382812 10.101562 C 1.285156 10.273438 1.382812 10.515625 1.554688 10.613281 L 5.433594 12.851562 C 5.605469 12.949219 5.863281 12.914062 5.960938 12.742188 C 6.0625 12.570312 5.964844 12.328125 5.792969 12.226562 "/>
</g>
</g>
</svg>
